<?xml version="1.0" encoding="utf-8"?>
<!-- Generator: Adobe Illustrator 26.1.0, SVG Export Plug-In . SVG Version: 6.00 Build 0)  -->
<svg version="1.1" xmlns="http://www.w3.org/2000/svg" xmlns:xlink="http://www.w3.org/1999/xlink" x="0px" y="0px"
	 viewBox="0 0 1000 1000" style="enable-background:new 0 0 1000 1000;" xml:space="preserve">
<style type="text/css">
	.st0{fill:#F7F0F0;stroke:#F7F0F0;stroke-miterlimit:10;}
	.st1{fill:none;stroke:#42213D;stroke-miterlimit:10;}
	.st2{fill:#AD5CA0;stroke:#AD5CA0;stroke-miterlimit:10;}
	.st3{fill:none;stroke:#42213D;stroke-width:3;stroke-miterlimit:10;}
	.st4{fill:#42213D;}
	.st5{fill:none;stroke:#C582B7;stroke-miterlimit:10;}
</style>
<g id="Capa_2">
</g>
<g id="Capa_7">
</g>
<g id="Capa_1">
	<ellipse class="st0" cx="518.42" cy="582.17" rx="218.58" ry="250.03"/>
	<path class="st1" d="M530.21,561.38"/>
	<path class="st0" d="M679.89,348.87l-4.75,2.99c-31.33-21.3-85.29-36.43-85.29-36.43s22.02-34.33,20.38-51.64s-16.98-4.1-16.98-4.1
		c-18.8,16.61-123.98,51.53-135.99,55.47c-9.49,3.11-56.38,23.4-56.38,23.4l-4.42-4.77c0,0-17.96-27.32,3.21-65.82
		c21.18-38.5,45.66-84.12,45.66-84.12c11.12-55.98-44.8-37.76-44.8-37.76c-167.93,81.59-61,216.78-61,216.78
		c-112.17,267.87,51.44,411,51.44,411s318.31-22.1,312.81-69.37c-5.42-46.65,20.57-78,23.78-151.34
		c2.96-67.64-11.45-130.99-14.86-145.39c-0.47-2,149.15-104.09,13.43-232.29c0,0-47.88-34.16-54.07,22.58
		c0,0,9.67,50.87,18.32,93.95c8.65,43.08-16.68,63.75-16.68,63.75L679.89,348.87z"/>
	<path class="st2" d="M604.14,598.51c0,55.33-34.58,100.19-77.25,100.19c-42.66,0-77.25-44.86-77.25-100.19
		c0-55.33,34.58-100.19,77.25-100.19C569.56,498.32,604.14,543.18,604.14,598.51z"/>
	<path class="st3" d="M496.11,544.12c0,0,13.56,21.83,30.4,22.57c9.21,0.4,19.4-5.51,28.88-24.75"/>
	<path class="st3" d="M585.21,584.69c0,0-45.85,57.74-59.64-17.35"/>
	<path class="st3" d="M466.62,586.34c0,0,47.91,56.52,58.97-19.62"/>
	<path class="st2" d="M546.39,386.92l232.8-8.45c0,0,4.18,19.44,0.51,49.76c0,0-16.8,5.36-18.86,21.26c0,0-4.72,78.84-28,96.74
		c-23.28,17.9-160.93,80.74-194.03-83.98c0,0-4.18-13.31-17.12-12.77l-2.38-61.6L546.39,386.92z"/>
	<path class="st0" d="M558.86,435.78c0,0-0.3-20.56,16.17-23.07c16.47-2.51,38.6-10.02,144.23-5.44c0,0,16.5,0.56,19.09,19.49
		c2.59,18.93,16.81,126.87-75.75,126.83s-103.33-88.35-103.33-88.35S557.28,453.41,558.86,435.78z"/>
	<path class="st2" d="M495.43,387.37l-232.91-4.83c0,0-3.87,19.51,0.26,49.76c0,0,16.88,5.1,19.19,20.97c0,0,5.95,78.75,29.5,96.29
		c23.56,17.54,162.16,78.23,192.71-86.99c0,0,3.97-13.37,16.92-13.03l1.43-61.63L495.43,387.37z"/>
	<path class="st0" d="M485.57,440.11c0,0,0.01-20.56-16.49-22.84c-16.5-2.27-38.74-9.48-144.3-3.41c0,0-16.49,0.79-18.82,19.76
		c-2.32,18.96-15.02,127.09,77.53,125.75s102.07-89.8,102.07-89.8S487.4,457.72,485.57,440.11z"/>
	
		<ellipse transform="matrix(0.9994 -0.0359 0.0359 0.9994 -17.6335 14.8399)" class="st4" cx="404.31" cy="498.32" rx="29.1" ry="39.3"/>
	<ellipse class="st4" cx="649.46" cy="498.32" rx="29.1" ry="39.3"/>
	<path class="st5" d="M504.91,678.2"/>
</g>
<g id="Capa_3">
	<g id="Capa_4">
	</g>
</g>
<g id="Capa_5">
</g>
<g id="Capa_6">
</g>
</svg>
