<?xml version="1.0" encoding="utf-8"?>
<!-- Generator: Adobe Illustrator 26.1.0, SVG Export Plug-In . SVG Version: 6.00 Build 0)  -->
<svg version="1.1" xmlns="http://www.w3.org/2000/svg" xmlns:xlink="http://www.w3.org/1999/xlink" x="0px" y="0px"
	 viewBox="0 0 1000 1000" style="enable-background:new 0 0 1000 1000;" xml:space="preserve">
<style type="text/css">
	.st0{fill:none;stroke:#C582B7;stroke-miterlimit:10;}
	.st1{fill:#A8539B;stroke:#A8539B;stroke-miterlimit:10;}
	.st2{fill:#F5EB78;}
	.st3{fill:#FFFFFF;}
	.st4{fill:#569C33;}
	.st5{fill:#42213D;}
	.st6{fill:none;stroke:#42213D;stroke-miterlimit:10;}
	.st7{fill:#F7F0F0;}
	.st8{fill:#AD5CA0;stroke:#AD5CA0;stroke-miterlimit:10;}
	.st9{fill:none;stroke:#42213D;stroke-width:3;stroke-miterlimit:10;}
	.st10{fill:#F7F0F0;stroke:#F7F0F0;stroke-miterlimit:10;}
</style>
<g id="Capa_2">
</g>
<g id="Capa_7">
</g>
<g id="Capa_1">
	<path class="st0" d="M-7.23,851.74"/>
	<path class="st0" d="M-45.87,946.51"/>
	<line class="st1" x1="353.67" y1="662.68" x2="353.67" y2="668.45"/>
	<line class="st1" x1="353.67" y1="662.68" x2="351.49" y2="667.55"/>
	<line class="st2" x1="353.67" y1="662.68" x2="353.67" y2="668.45"/>
	<path class="st3" d="M578.85,736.17"/>
	<path class="st3" d="M353.67,662.68"/>
	<path class="st4" d="M499.9,753.21"/>
	<g>
		<path class="st1" d="M235.79,914.49h-39.35l-6.37-21.56h-39.98l-6.62,21.56h-38.61l44.23-129.07h42.48L235.79,914.49z
			 M182.82,869.73c-5.67-19.21-9.91-37.48-12.74-54.82h-0.5c-3,17.86-7.21,36.13-12.62,54.82H182.82z"/>
		<path class="st1" d="M254.91,785.42h37.85v99.2h29.98v29.88h-67.84V785.42z"/>
		<path class="st1" d="M348.36,785.42h46.85c16.49,0,29.74,3.64,39.73,10.92c10,7.29,14.99,16.89,14.99,28.81
			c0,12.57-5.06,22.42-15.18,29.54c-10.12,7.12-24.13,10.68-42.04,10.68h-6.5v49.12h-37.85V785.42z M386.21,810.17v30.46
			c8.5-0.13,14.76-1.38,18.8-3.77c4.04-2.38,6.06-6.15,6.06-11.31c0-5.54-1.96-9.46-5.87-11.75
			C401.29,811.51,394.96,810.3,386.21,810.17z"/>
		<path class="st1" d="M583.49,914.49h-39.35l-6.37-21.56h-39.98l-6.62,21.56h-38.6l44.23-129.07h42.48L583.49,914.49z
			 M530.51,869.73c-5.67-19.21-9.91-37.48-12.74-54.82h-0.5c-3,17.86-7.21,36.13-12.62,54.82H530.51z"/>
		<path class="st1" d="M582.74,785.42h90.33v29.49h-26.11v99.58H608.6v-99.58h-25.86V785.42z"/>
		<path class="st1" d="M696.55,785.42h76.58v27.46h-38.73v23.78h33.61v26.78h-33.61v23.49h38.98v27.55h-76.83V785.42z"/>
		<path class="st1" d="M791.25,785.42h41.98c10.74,20.24,16.62,31.84,17.62,34.81h0.5c0.17-0.9,1.75-4.19,4.75-9.86l12.74-24.94
			h41.98l-38.73,61.59l41.98,67.49h-41.98c-13.41-24.3-20.41-37.38-20.99-39.25h-0.5c-1.42,4.13-3.29,8.22-5.62,12.28l-15.37,26.97
			h-41.35l41.1-67.1L791.25,785.42z"/>
	</g>
	<path class="st3" d="M731.5,541.07"/>
	<circle class="st5" cx="511.43" cy="393.44" r="343.5"/>
	<path class="st6" d="M714.28,379.74"/>
	<path class="st7" d="M621.79,246.28l-3.74,2.35c-24.71-16.79-67.26-28.72-67.26-28.72s17.36-27.07,16.07-40.72
		s-13.39-3.23-13.39-3.23c-14.83,13.09-97.77,40.64-107.24,43.74c-7.48,2.45-44.46,18.45-44.46,18.45l-3.49-3.76
		c0,0-14.16-21.55,2.53-51.9s36-66.34,36-66.34c8.77-44.15-35.33-29.78-35.33-29.78c-132.42,64.34-48.1,170.94-48.1,170.94
		c-88.45,211.23,20.92,425.81,20.92,425.81s8.24,11.96,7.94,22.21c7.88,7.22,178.35,65.51,308.39-27.35l13.05-8.93l8.47-6.3
		c11.51-15.11-33.11-20.79-37.44-58.07c-4.28-36.79-16.78-157.04-15.36-197.31c1.89-53.36-9.03-103.29-11.72-114.65
		c-0.37-1.57,117.61-82.08,10.59-183.17c0,0-37.76-26.94-42.63,17.81c0,0,7.62,40.11,14.45,74.08s-13.15,50.27-13.15,50.27
		L621.79,246.28z"/>
	<path class="st8" d="M570.33,451.7c0,43.63-27.27,79-60.91,79s-60.91-35.37-60.91-79s27.27-79,60.91-79S570.33,408.07,570.33,451.7
		z"/>
	<path class="st9" d="M484.95,408.38c0,0,10.7,17.22,23.97,17.8c7.26,0.32,15.29-4.34,22.77-19.52"/>
	<path class="st9" d="M556.45,440.49c0,0-36.15,50.97-47.03-15.32"/>
	<path class="st1" d="M526.86,286.52l183.69-1.58c0,0,2.87,15.42-0.68,39.23c0,0-13.36,3.86-15.33,16.35c0,0-5.44,62.04-24.19,75.64
		c-18.74,13.6-128.61,60.13-151.11-70.43c0,0-3.01-10.58-13.22-10.44l-0.53-48.61L526.86,286.52z"/>
	<path class="st10" d="M535.94,324.59c0,0,0.39-16.21,13.44-17.69c13.05-1.47,30.72-6.72,113.82,0.1c0,0,12.98,0.94,14.45,15.94
		c1.47,14.99,9.39,100.48-63.55,97.64s-78.73-72.76-78.73-72.76S534.15,338.44,535.94,324.59z"/>
	<path class="st1" d="M485.55,286.6l-183.68-2.53c0,0-2.95,15.4,0.48,39.23c0,0,13.34,3.93,15.25,16.43c0,0,5.12,62.07,23.79,75.77
		c18.67,13.7,128.3,60.8,151.48-69.65c0,0,3.06-10.57,13.27-10.37l0.79-48.61L485.55,286.6z"/>
	<path class="st10" d="M478.05,325.77c0,0,0.63-16.2-12.3-18.5c-12.93-2.29-30.23-8.64-113.6-7.07c0,0-13.02,0.12-15.43,15
		c-2.41,14.87-15.7,99.69,57.27,101.45c72.97,1.76,83.16-67.65,83.16-67.65S478.96,339.7,478.05,325.77z"/>
	
		<ellipse transform="matrix(0.0369 -0.9993 0.9993 0.0369 31.6929 764.0739)" class="st5" cx="412.26" cy="365.59" rx="30.99" ry="22.95"/>
	<path class="st0" d="M694.34,471.86"/>
	<path class="st7" d="M705.38,674.42c50.78-26.88,94-105.97,98.34-114.1c0.24-0.45,0.32-0.95,0.24-1.45
		c-1.22-7.7-10.19-56.44-10.72-59.28c-0.02-0.1-0.04-0.18-0.07-0.27c-7.33-23.97-18.12-41.25-25.97-51.91
		c-9.2-12.51-18.77-25.51-36.67-35.53c-16.06-8.99-32.48-12.02-39.23-13.22c-7.91-1.4-14.68-1.9-19.61-2.07
		c-18.07,0.15-33.98,10.02-40.08,24.79c-7.18,17.39,2.58,33.51,4.69,36.77c1.32,2.04,9.91,14.91,26.44,19
		c3.34,0.83,6.34,1.13,8.72,1.21c1.11,0.04,2.03,0.82,2.23,1.92c1.29,6.99,7.7,31.16,35.08,35.46c1.02,0.16,1.84,0.94,1.99,1.97
		c2.24,15.09,16.87,124.36-26.87,137.02c-0.17,0.05-0.35,0.08-0.52,0.1l0,0c-2.16,0.18-2.94,2.94-1.19,4.23l20.71,15.18
		C703.62,674.76,704.58,674.84,705.38,674.42z"/>
	<path class="st3" d="M803.58,559.39"/>
	<path class="st10" d="M382.25,705.35v6.48c0,0,67.26,33.7,166.57,23.11s160.5-60.24,160.5-60.24s66.54-46.41,99.94-109.98
		c0,0-5.77-3.05-5.68-5.32c0.09-2.27-126.03,145.43-217.76,148.69C494.09,711.34,382.25,705.35,382.25,705.35z"/>
	<path class="st9" d="M463.28,440.49c0,0,36.15,50.97,47.03-15.32"/>
	
		<ellipse transform="matrix(0.0369 -0.9993 0.9993 0.0369 212.1945 951.3657)" class="st5" cx="599.67" cy="365.59" rx="30.99" ry="22.95"/>
</g>
<g id="Capa_3">
	<g id="Capa_4">
	</g>
</g>
<g id="Capa_5">
</g>
<g id="Capa_6">
	<g>
	</g>
	<g>
	</g>
	<g>
	</g>
	<g>
	</g>
	<g>
	</g>
	<g>
	</g>
</g>
</svg>
